<svg
            width="51"
            height="50"
            viewBox="0 0 51 50"
            fill="var(--iconWebFcColor)"
            xmlns="http://www.w3.org/2000/svg"
        >
            <path
                fill-rule="evenodd"
                clip-rule="evenodd"
                d="M25.9615 0.477218C26.0622 0.480703 26.1629 0.484187 26.2456 0.473734C26.6448 0.417981 26.9361 0.480703 27.1483 0.665382C27.3317 0.829154 27.4252 1.06959 27.4288 1.39713C27.4288 1.44591 27.4288 1.4947 27.4252 1.54697C27.4005 1.93742 27.4105 2.32787 27.4211 2.74148L27.4216 2.76306C27.4228 2.82566 27.4232 2.88903 27.4236 2.95215V2.95222C27.4244 3.07879 27.4252 3.20434 27.4324 3.32058C27.436 3.50875 27.436 3.69691 27.436 3.88508C27.436 4.32761 27.4396 4.7806 27.4576 5.22661L27.4577 5.2315C27.4615 5.35807 27.4723 5.71753 27.2202 5.95139C27.0584 6.10471 26.8211 6.16744 26.5226 6.13956C26.3823 6.12562 26.2277 6.12562 26.0514 6.14304C25.7565 6.17092 25.5264 6.11168 25.3609 5.96533C25.1919 5.8155 25.1092 5.60643 25.1092 5.30327C25.1056 3.97219 25.0912 2.64807 25.066 1.36229V1.34835C25.0624 1.04868 25.1416 0.829154 25.3034 0.675836C25.4616 0.529486 25.681 0.46328 25.9615 0.477218ZM43.3465 8.46378C43.2968 8.41263 43.2525 8.34329 43.2066 8.27146L43.1847 8.23729C43.0408 8.00383 42.861 7.86445 42.6488 7.81915C42.4258 7.77385 42.1957 7.83309 41.9403 8.00383C41.9385 8.00557 41.9367 8.00644 41.9349 8.00731C41.9331 8.00818 41.9313 8.00905 41.9295 8.0108C40.8434 8.74951 39.7178 9.50217 38.5813 10.2479C38.3224 10.4151 38.1893 10.5998 38.157 10.8193C38.1246 11.0319 38.2037 11.2514 38.3871 11.4744C38.4986 11.6068 38.5885 11.7323 38.6569 11.8507C38.8007 12.1051 38.9841 12.2619 39.2071 12.3072C39.5524 12.3804 39.858 12.1643 39.9587 12.0912C40.2914 11.8534 40.6385 11.624 40.9767 11.4005L41.0916 11.3246C41.1725 11.2723 41.2525 11.2192 41.3325 11.166C41.4126 11.1129 41.4926 11.0598 41.5735 11.0075C41.6571 10.9467 41.7492 10.8848 41.8421 10.8223L41.8422 10.8223L41.8422 10.8223C41.9091 10.7773 41.9763 10.7321 42.041 10.6869L42.0846 10.6568L42.0847 10.6567L42.0847 10.6566C42.4212 10.4237 42.7427 10.2012 43.084 10.0074L43.111 9.99144C43.1474 9.96989 43.1816 9.94971 43.2134 9.92728C43.4904 9.7426 43.645 9.53353 43.6846 9.2931C43.7277 9.02479 43.6198 8.753 43.3465 8.46378ZM39.4765 23.0639C39.8002 19.4643 38.804 16.4154 36.5167 13.9971C31.8343 9.05261 25.1487 7.98635 19.0709 11.213C12.2594 14.8334 11.1913 22.0255 13.6584 27.2592C14.7409 29.559 16.5966 31.3779 19.3262 32.8205C18.7112 33.8554 18.6465 35.0576 19.1356 36.2528C18.6429 37.4061 18.722 38.7093 19.355 39.7686C20.085 40.9847 21.4193 41.7409 22.8434 41.7409C22.901 41.7409 22.9585 41.7409 23.0125 41.7374C23.6778 41.7095 24.3575 41.7165 25.012 41.7234L25.0216 41.7235C25.3384 41.727 25.6518 41.7304 25.9686 41.7304L26.9612 41.7339C27.6841 41.7374 28.4034 41.7374 29.1262 41.7304C30.6403 41.7095 31.9674 40.9847 32.6722 39.786C33.28 38.7511 33.3555 37.434 32.8736 36.2388C33.3807 34.967 33.3232 33.8972 32.6866 32.8414C36.7972 30.7263 39.0809 27.4404 39.4765 23.0639ZM30.2015 31.8867L30.1692 31.925C30.1224 31.9842 30.0721 32.0469 30.0253 32.1027C29.6405 32.5592 29.975 33.2177 30.1872 33.4477C30.9748 34.3014 31.0287 34.6603 30.5216 35.7022C30.3562 36.0437 30.367 36.5211 30.554 36.8556C30.8884 37.4688 30.9136 38.0995 30.6259 38.5909C30.3418 39.0752 29.7844 39.3575 29.0975 39.3679C28.4115 39.3783 27.7255 39.3749 27.0359 39.3714L27.0332 39.3714L26.0118 39.3679C25.6881 39.3679 25.3609 39.3644 25.0372 39.3609L24.9232 39.3597C24.2973 39.3529 23.5999 39.3453 22.9154 39.3749C22.3004 39.3958 21.7034 39.0752 21.3905 38.556C21.0956 38.0647 21.11 37.4793 21.4301 36.9462C21.6818 36.528 21.6243 35.9391 21.4444 35.5977C21.0129 34.7823 21.11 34.1342 21.7501 33.5488C22.0594 33.2665 22.2141 32.9599 22.2141 32.6393C22.2141 32.4302 22.1457 32.1166 21.8149 31.817L21.6243 31.6392C21.2898 31.3291 20.9086 30.9772 20.4483 30.7333C18.1466 29.5207 16.6721 28.0955 15.8018 26.2487C14.1906 22.8304 14.0288 16.5548 20.1857 13.2828C22.1206 12.2549 24.1237 11.7357 26.1449 11.7357C29.3564 11.7357 32.4241 13.1086 34.7869 15.6035C36.5887 17.5095 37.3727 19.9417 37.1101 22.8408C36.7829 26.5344 34.8696 29.1722 31.2661 30.9075C30.8014 31.1326 30.4718 31.547 30.2065 31.8804L30.2015 31.8867ZM22.7429 26.4368C22.7465 25.7643 22.75 25.0674 22.7141 24.3845C22.7069 24.2172 22.6134 23.9977 22.5055 23.8897C21.6064 22.9906 20.6354 22.0673 19.6212 21.1508C19.4954 21.0393 19.1645 20.7396 19.1861 20.318C19.2005 20.0427 19.3515 19.7988 19.6536 19.5758C19.7327 19.5201 19.7938 19.4608 19.8442 19.4016C20.0744 19.1228 20.3405 18.973 20.6246 18.9591C21.067 18.9382 21.3834 19.2413 21.5165 19.3737C21.9517 19.8023 22.394 20.2205 22.84 20.6386C23.4585 21.2205 24.0843 21.8094 24.6813 22.4192C25.0517 22.799 25.3035 23.367 25.3178 23.8687C25.3574 25.1615 25.3538 26.4124 25.3466 27.7331C25.3466 27.9671 25.3457 28.2019 25.3448 28.4376L25.3448 28.4387V28.4391V28.4395C25.3439 28.677 25.343 28.9154 25.343 29.1548V29.6635H22.7429V28.5345V27.1825V26.5867V26.4368ZM28.2595 35.9565C26.8425 35.939 25.422 35.946 24.0338 35.9669C23.7856 35.9704 23.5735 36.0575 23.4188 36.2143C23.239 36.399 23.1527 36.6673 23.1671 36.9879C23.1887 37.5489 23.5051 37.8451 24.0805 37.8486C24.3647 37.852 24.6488 37.852 24.9365 37.852H25.5191L26.357 37.8486H26.7131C26.8399 37.8486 26.9667 37.8488 27.0935 37.849C27.4738 37.8497 27.854 37.8503 28.2343 37.8451C28.745 37.8381 29.0723 37.5071 29.1046 36.96C29.1226 36.6534 29.0363 36.3816 28.8601 36.2004C28.7018 36.0436 28.4969 35.9565 28.2595 35.9565ZM3.51404 40.1905L3.51389 40.1905L3.51375 40.1905L3.51361 40.1905L3.51348 40.1905L3.51335 40.1905H3.51323C2.67246 40.1526 1.83167 40.1148 0.991878 40.0683C0.991878 41.4238 0.991878 42.7792 0.988281 44.1417L0.992188 44.1419V45.7585C1.29371 45.7711 1.59485 45.783 1.89572 45.7948L1.89659 45.7948C2.51052 45.819 3.12336 45.8431 3.7362 45.8735C5.04551 45.9376 6.35482 46.0036 7.6643 46.0695L7.66628 46.0696L7.66821 46.0697L7.67029 46.0698L7.67237 46.0699L7.67446 46.07L7.67655 46.0701C9.99217 46.1868 12.3083 46.3034 14.6259 46.4101C15.2328 46.4388 15.8431 46.4314 16.4591 46.4239H16.4591H16.4591H16.4592H16.4592H16.4592H16.4593H16.4593H16.4593H16.4593H16.4594H16.4594H16.4596C16.7401 46.4205 17.0218 46.4171 17.3049 46.4171V46.4241C17.0232 46.4241 16.7426 46.4275 16.4628 46.4309H16.4625H16.4621H16.4618H16.4615H16.4612H16.4609H16.4606H16.4603H16.46H16.4597H16.4594H16.459C15.8435 46.4384 15.2319 46.4458 14.622 46.4171C12.3084 46.3104 9.9933 46.1939 7.67861 46.0774C6.36293 46.0111 5.04737 45.9449 3.73229 45.8805C3.123 45.8504 2.5153 45.8264 1.90812 45.8025L1.90547 45.8024C1.59965 45.7904 1.29397 45.7783 0.988281 45.7655V49.0165H50.6287C50.6654 48.9788 50.7118 48.941 50.7585 48.903C50.8625 48.8184 50.9678 48.7327 50.9703 48.6437C50.9919 47.9234 50.9892 47.2011 50.9865 46.4724V46.4724V46.4723V46.4723V46.4722V46.4721V46.4721V46.472V46.472V46.4719V46.4719V46.4718V46.4717V46.4708V46.4698V46.4689V46.468V46.4671V46.4662V46.4652V46.4644V46.4635C50.9856 46.2223 50.9847 45.9804 50.9847 45.7376C45.511 46.0094 40.0985 46.2777 34.6681 46.546V44.9292C37.7972 44.7735 40.9097 44.619 44.0126 44.4649L44.1322 44.459L50.9415 44.1208V40.0997C50.8782 40.0972 50.8202 40.093 50.7657 40.0891L50.7656 40.0891L50.7653 40.089C50.6652 40.0818 50.5768 40.0755 50.4884 40.0822C49.5161 40.1529 48.5426 40.2148 47.5689 40.2768L47.568 40.2768C45.2753 40.4227 42.9819 40.5687 40.7027 40.8279C37.5883 41.1799 34.5314 41.8733 31.6723 43.1974C29.8921 44.0232 28.5471 44.9675 27.7091 47.0269L27.6012 47.3091L24.3501 47.3022C24.1056 46.1941 23.5158 45.208 22.4405 44.4274C21.6996 43.9431 20.9372 43.4657 20.1244 43.1068C16.6863 41.591 13.0145 40.929 9.29584 40.5561C7.37674 40.3644 5.44542 40.2774 3.51404 40.1905ZM28.26 32.9389C26.8502 32.925 25.4297 32.9285 24.0343 32.9494C23.7861 32.9529 23.5739 33.04 23.4193 33.1968C23.2395 33.3815 23.1532 33.6498 23.1676 33.9704C23.1891 34.5314 23.5056 34.8275 24.081 34.8345C24.3579 34.838 24.6313 34.838 24.9082 34.838H25.5052L26.3575 34.8345H26.7136C26.8404 34.8345 26.9672 34.8347 27.094 34.8349C27.4743 34.8356 27.8545 34.8363 28.2348 34.831C28.7455 34.8241 29.0728 34.493 29.1051 33.946C29.1231 33.6393 29.0368 33.3675 28.8606 33.1863C28.7023 33.0261 28.4973 32.9424 28.26 32.9389ZM31.5452 19.2501C32.0868 19.681 32.3845 19.9179 32.4025 20.325C32.4205 20.7292 32.1327 21.0045 31.6544 21.4575L30.8992 22.1718C30.313 22.7293 29.7412 23.2694 29.1622 23.8025C28.9572 23.9907 28.8745 24.1824 28.8781 24.4646C28.8867 25.3308 28.8861 26.197 28.8855 27.0739L28.8852 27.7366V29.6635H26.3534L26.2959 29.0398L26.289 28.9653V28.9653V28.9652V28.9652V28.9652V28.9652V28.9652V28.9652V28.9651C26.2798 28.8682 26.2707 28.7717 26.2707 28.6774L26.2671 27.5031C26.2599 26.294 26.2527 25.0465 26.2887 23.8165C26.3031 23.3356 26.5404 22.7851 26.8785 22.4471C27.5726 21.7536 28.299 21.0776 29.0039 20.4226L29.0661 20.3645L29.0668 20.3638C29.4476 20.0081 29.819 19.6611 30.1871 19.311C30.6079 18.9103 31.0898 18.8859 31.5429 19.2483L31.5452 19.2501ZM9.78157 21.5759C9.53701 21.8199 9.19896 21.8199 8.51925 21.8199H7.53745C6.76423 21.8164 5.95865 21.8129 5.17465 21.8338H5.11351C4.77545 21.8338 4.5309 21.7502 4.36547 21.5759C4.19644 21.3947 4.13171 21.1439 4.17127 20.8024C4.17846 20.7292 4.17846 20.6595 4.17127 20.5968C4.12092 20.2344 4.18565 19.9661 4.36907 19.7814C4.55248 19.5898 4.8294 19.5096 5.21421 19.5305C5.64217 19.5584 6.08812 19.5514 6.51968 19.5445C6.59874 19.5431 6.67781 19.5428 6.75664 19.5425C6.87503 19.5421 6.9929 19.5417 7.10948 19.5375H7.6849L7.96325 19.5378H7.96349C8.33456 19.5383 8.70562 19.5389 9.07668 19.5305C9.67727 19.5201 9.97937 19.7988 9.99375 20.3598V20.4051L9.99394 20.4113C10.0118 21.0068 10.0217 21.3363 9.78157 21.5759ZM47.8522 20.6909C47.8414 20.6107 47.845 20.5132 47.8522 20.4156C47.8702 20.1438 47.8054 19.9312 47.6544 19.7744C47.4997 19.6141 47.2732 19.5375 46.9639 19.5375H46.9495C45.6225 19.5479 44.2558 19.5479 42.882 19.5375C42.5692 19.534 42.3534 19.6141 42.1987 19.7744C42.0477 19.9312 41.983 20.1577 42.0081 20.44C42.0225 20.6107 42.0225 20.7606 42.0081 20.8964C41.9758 21.1857 42.0405 21.4156 42.1951 21.5759C42.4361 21.8268 42.8173 21.8164 42.9396 21.8129C43.3999 21.7989 43.8674 21.8024 44.3242 21.8059C44.4213 21.8059 44.5184 21.8068 44.6155 21.8077L44.6161 21.8077C44.713 21.8085 44.8099 21.8094 44.9068 21.8094C45.0148 21.8052 45.1305 21.8048 45.2479 21.8044H45.2481H45.2482H45.2483H45.2484H45.2485H45.2486C45.3264 21.8041 45.4049 21.8038 45.4822 21.8024L45.4971 21.8022C45.9267 21.7953 46.332 21.7888 46.7373 21.8164L46.7474 21.817C46.7976 21.8203 46.8448 21.8233 46.892 21.8233C47.23 21.8233 47.4782 21.7362 47.6508 21.5585C47.8378 21.3599 47.9061 21.0742 47.8522 20.6909ZM12.5218 30.127C12.4607 30.4615 12.1802 30.6497 11.6227 31.0225C11.443 31.1433 11.2632 31.261 11.0834 31.3787C10.9935 31.4375 10.9035 31.4964 10.8136 31.5557C10.1734 31.9773 9.5081 32.4163 8.87514 32.8658C8.85716 32.8798 8.84277 32.8902 8.82479 32.9007C8.54787 33.0854 8.29613 33.1516 8.05877 33.0993C7.81062 33.0436 7.60923 32.8728 7.4438 32.5697C7.40783 32.5035 7.36827 32.4442 7.32512 32.3989C7.07337 32.1306 6.96908 31.8728 7.00864 31.6184C7.0482 31.3605 7.23161 31.141 7.55888 30.9494C7.92437 30.7362 8.28286 30.4891 8.62744 30.2516L8.64138 30.242C8.68184 30.215 8.72252 30.1882 8.76321 30.1614C8.88526 30.0811 9.00731 30.0007 9.12329 29.9145L9.59801 29.6009L9.67142 29.5523C10.0313 29.3145 10.3881 29.0787 10.7416 28.8308C11.2307 28.4928 11.6407 28.5555 11.9824 29.0085L12.0112 29.0468C12.378 29.5312 12.5794 29.7995 12.5218 30.127ZM12.4281 10.8157C12.9747 11.206 13.2516 11.3977 13.5933 11.3419C13.9298 11.2864 14.1238 11.0168 14.4767 10.5263L14.4816 10.5196L14.5068 10.4812C14.8376 10.0213 14.7621 9.62404 14.2694 9.28604C13.8882 9.02819 13.5142 8.75988 13.1437 8.49157L12.6798 8.16054C12.5908 8.10303 12.5039 8.04129 12.4168 7.9794L12.4168 7.97936L12.4167 7.97933C12.3456 7.92875 12.2743 7.87808 12.2015 7.82952C11.8491 7.58908 11.4858 7.3382 11.1586 7.06989C10.8637 6.83294 10.5903 6.73886 10.3242 6.78764C10.0617 6.83643 9.84589 7.01414 9.66608 7.33471C9.63371 7.39047 9.59415 7.44622 9.5402 7.50197C9.30285 7.75286 9.19855 7.99329 9.22732 8.2372C9.25609 8.47067 9.39995 8.67974 9.67327 8.87139C9.68226 8.87661 9.69035 8.88271 9.69845 8.88881C9.70654 8.89491 9.71463 8.901 9.72362 8.90623C10.2938 9.28684 10.8613 9.69177 11.4161 10.0877L11.6405 10.2478C11.903 10.4429 12.1655 10.6311 12.4281 10.8157ZM44.9907 32.2348C44.933 32.3028 44.8775 32.3682 44.8421 32.4337C44.6515 32.7752 44.4249 32.9668 44.1444 33.0226C43.8962 33.0644 43.6445 32.9947 43.3712 32.7996C43.3316 32.7717 43.2885 32.7403 43.2489 32.7055C42.936 32.4476 42.6016 32.2177 42.2455 31.9738C42.1854 31.9327 42.1252 31.8896 42.0654 31.8468C41.968 31.777 41.8716 31.708 41.778 31.6497C41.7007 31.594 41.6225 31.5382 41.5444 31.4825C41.4661 31.4267 41.3878 31.371 41.3105 31.3152C40.9436 31.0504 40.566 30.7786 40.1884 30.5277C40.1847 30.5251 40.1807 30.5224 40.1764 30.5194C40.0648 30.4427 39.7698 30.2398 39.7317 29.9109C39.7065 29.6914 39.7964 29.4719 39.9978 29.2558C40.0913 29.1548 40.1812 29.0328 40.2747 28.8865C40.4294 28.6426 40.6164 28.4997 40.8358 28.4579C41.0587 28.4161 41.2853 28.4753 41.5334 28.6565C42.6375 29.451 43.7416 30.2315 44.8169 30.9842C44.8189 30.9842 44.8209 30.9852 44.8229 30.9868C44.8245 30.988 44.8261 30.9896 44.8277 30.9911C45.0794 31.1688 45.2125 31.3605 45.2413 31.58C45.27 31.7926 45.1909 32.0016 45.0111 32.2107C45.0043 32.2188 44.9975 32.2268 44.9907 32.2348Z"
                fill="var(--iconWebFcColor)"
            ></path>
        </svg>