 <svg
            width="53"
            height="50"
            viewBox="0 0 53 50"
            fill="var(--iconWebFcColor)"
            xmlns="http://www.w3.org/2000/svg"
        >
            <path
                fill-rule="evenodd"
                clip-rule="evenodd"
                d="M44.697 18.9705C49.2763 18.9766 52.9984 22.7319 52.9877 27.3371C52.9801 30.6941 50.9679 33.5979 48.0969 34.9071C48.0529 36.9301 48.068 38.9543 48.0831 40.9785C48.091 42.0356 48.0989 43.0927 48.0984 44.1496C48.0969 47.5188 45.9509 49.6642 42.5814 49.6642H13.4064C12.6708 49.6642 11.9353 49.6656 11.1998 49.667C9.50823 49.6703 7.81692 49.6735 6.12634 49.6597C3.24623 49.6353 1.01662 47.3937 1.00294 44.499C0.984698 40.6919 0.984698 36.8862 1.00294 33.0791C1.01358 30.7246 2.57294 28.7333 4.82383 28.1336C5.02667 28.0799 5.2322 28.0403 5.4502 27.9984C5.56051 27.9771 5.67401 27.9553 5.79197 27.9307H10.157C10.163 27.891 10.1688 27.8513 10.1745 27.8116C10.186 27.7323 10.1975 27.6529 10.2117 27.5736C10.7649 24.4043 12.2179 21.6363 14.5296 19.3474C15.8822 18.0077 17.4446 16.9548 19.1818 16.2101C17.1224 14.3455 16.098 12.0123 16.1345 9.2596C16.1664 6.80593 17.0768 4.68644 18.8398 2.95758C20.6013 1.23177 22.9039 0.308591 25.3265 0.360472C27.699 0.410827 29.9241 1.3752 31.5929 3.07355C33.4668 4.98094 34.3955 7.62687 34.1432 10.3354C33.9289 12.6288 32.8619 14.7224 31.1734 16.2162C34.2572 17.7101 36.5704 19.7213 38.1024 22.2314C39.6237 20.2477 42.0145 18.9675 44.697 18.9705ZM25.1594 3.86397H25.1502C22.1136 3.86397 19.6317 6.34815 19.615 9.40761C19.6074 10.8816 20.1788 12.2763 21.226 13.3338C22.2777 14.3958 23.6699 14.9833 25.1487 14.9848H25.1578C28.1945 14.9848 30.6764 12.5006 30.6931 9.44118C30.7007 7.96715 30.1293 6.57246 29.0821 5.51501C28.0304 4.45297 26.6382 3.86549 25.1594 3.86397ZM18.0708 27.9322L13.6952 27.9566C13.6952 27.9574 13.6947 27.9583 13.6943 27.9591C13.694 27.9598 13.6936 27.9605 13.6936 27.9612C14.7699 27.9593 15.8468 27.9604 16.9236 27.9614C17.5695 27.9621 18.2154 27.9627 18.8611 27.9627C24.711 27.9627 30.5594 27.9627 36.4077 27.9581C36.4077 27.949 36.4062 27.9413 36.4062 27.9322H18.0708ZM13.6997 27.9322H18.0708L36.3986 27.8269C36.388 27.656 36.3804 27.482 36.3804 27.3081C36.3804 27.1982 36.3834 27.0899 36.388 26.9815C35.9579 25.4572 35.2223 24.0594 34.1842 22.8036C32.1765 20.3774 29.6338 18.9629 26.6245 18.5997C23.0741 18.1709 19.9296 19.1765 17.282 21.589C15.3989 23.3056 14.1967 25.4358 13.6997 27.9322ZM42.63 46.237C44.0389 46.237 44.6833 45.5946 44.6833 44.1877C44.6848 41.3404 44.6833 38.493 44.6803 35.6472C41.5798 35.6457 38.8699 33.9275 37.4443 31.3899H6.43183C5.06092 31.3899 4.40891 32.0384 4.40891 33.4087C4.40739 37.0053 4.40739 40.6003 4.40891 44.1969C4.40891 45.6007 5.05333 46.237 6.46982 46.237H24.5499H42.63ZM43.317 30.3004C44.2091 31.187 45.156 31.1946 46.0481 30.308C47.1652 29.1987 48.2747 28.0833 49.3842 26.9617C49.8918 26.4475 50.1016 25.8493 50.0134 25.2969C49.9602 24.9658 49.7991 24.6515 49.5301 24.3829C49.3507 24.2044 49.1516 24.0732 48.9404 23.9908C48.8887 23.9694 48.834 23.9526 48.7808 23.9374C48.6729 23.9084 48.5619 23.89 48.451 23.8855C48.2291 23.8748 48.0011 23.9129 47.7762 23.9984C47.6637 24.0411 47.5513 24.096 47.4418 24.1632C47.2777 24.2624 47.1166 24.389 46.9631 24.5431C46.7807 24.7262 46.5983 24.9108 46.4145 25.0969L46.4098 25.1016L46.1302 25.387C45.9063 25.6154 45.6777 25.8495 45.439 26.0939C45.3763 26.1582 45.3129 26.2231 45.2487 26.2888C45.1353 26.4051 45.0192 26.5238 44.9003 26.6453C44.8039 26.7437 44.7058 26.844 44.6058 26.9465C44.5429 26.8558 44.4886 26.7698 44.4377 26.6894C44.373 26.5871 44.314 26.4937 44.2501 26.4109C44.2122 26.362 44.1726 26.3162 44.1301 26.2735C43.9401 26.0889 43.7334 25.95 43.5176 25.857C43.2486 25.7395 42.9674 25.6937 42.6938 25.7181C42.5297 25.7318 42.3686 25.7715 42.2151 25.8371C42.1117 25.8798 42.0129 25.9348 41.9172 26.0004C41.8214 26.066 41.7318 26.1423 41.6467 26.2308C41.5965 26.2842 41.5494 26.3407 41.5068 26.3971C41.4947 26.4124 41.484 26.4292 41.4719 26.446C41.4399 26.4917 41.4111 26.5375 41.3837 26.5848C41.3746 26.6001 41.3655 26.6138 41.3579 26.6291C41.326 26.6901 41.2971 26.7527 41.2728 26.8152C41.2682 26.8259 41.2652 26.8381 41.2606 26.8488C41.2409 26.9022 41.2257 26.9556 41.212 27.0105C41.2112 27.0136 41.2105 27.0166 41.2097 27.0195C41.2059 27.0345 41.2024 27.0487 41.1998 27.0639C41.1877 27.1219 41.1785 27.1799 41.1725 27.2394C41.1709 27.2471 41.1694 27.2547 41.1694 27.2623C41.1633 27.331 41.1633 27.3981 41.1664 27.4668C41.1664 27.4805 41.1679 27.4958 41.1694 27.511C41.1725 27.566 41.1801 27.6224 41.1892 27.6774C41.1907 27.6926 41.1937 27.7094 41.1968 27.7247C41.2105 27.7933 41.2272 27.862 41.25 27.9307C41.3381 28.1962 41.4916 28.4541 41.7135 28.686C42.1725 29.1655 42.6442 29.6333 43.1155 30.1006C43.1827 30.1672 43.2499 30.2338 43.317 30.3004ZM40.8125 38.7815C40.7654 39.7078 39.9584 40.4478 39.0404 40.4081C38.0981 40.3685 37.3442 39.5262 37.4081 38.5847C37.4704 37.663 38.2926 36.9321 39.2076 36.987C40.1286 37.0435 40.8596 37.8614 40.8125 38.7815ZM15.5614 38.7328C15.5796 39.6575 16.3669 40.422 17.2864 40.4098C18.209 40.3991 18.9734 39.6178 18.9704 38.6901C18.9674 37.7654 18.1953 36.9902 17.2727 36.9856C16.3304 36.981 15.5416 37.7867 15.5614 38.7328ZM8.27979 38.6992C8.28131 39.6239 9.05035 40.4021 9.97138 40.4097C10.8924 40.4174 11.6736 39.6514 11.6888 38.7267C11.7055 37.802 10.9486 37.01 10.0261 36.9871C9.08379 36.9627 8.27827 37.7531 8.27979 38.6992ZM24.541 36.9871C25.462 36.984 26.2401 37.7531 26.2523 38.6778C26.2629 39.6254 25.4681 40.4234 24.5258 40.4097C23.6062 40.3975 22.8387 39.6132 22.8433 38.69C22.8463 37.7653 23.6199 36.9901 24.541 36.9871ZM30.1233 38.7251C30.1385 39.6498 30.9197 40.4174 31.8407 40.4097C32.7632 40.4036 33.5323 39.6254 33.5323 38.7007C33.5338 37.7745 32.7663 36.9963 31.8437 36.9871C30.9014 36.978 30.1081 37.7791 30.1233 38.7251Z"
                fill="var(--iconWebFcColor)"
            ></path>
        </svg>