 <svg
            width="44"
            height="48"
            viewBox="0 0 44 48"
            fill="var(--iconWebFcColor)"
            xmlns="http://www.w3.org/2000/svg"
        >
            <path
                d="M22.8093 42.0188C17.2838 42.0572 11.7613 42.0106 6.23576 42.0599C5.16847 42.0681 4.8224 41.8545 4.82821 40.7752C4.87765 31.0862 4.85729 21.3972 4.85729 11.711C4.85729 11.3439 4.85729 10.9741 4.85729 10.5276C14.5851 10.5276 24.1936 10.5276 33.9156 10.5276C33.9156 16.4747 33.9156 22.3478 33.9156 28.2839C35.2475 28.1496 36.4602 28.0264 37.7864 27.8921C37.7864 27.4703 37.7864 27.1032 37.7864 26.7362C37.7864 24.1338 37.7864 21.5314 37.7864 18.9318C37.7864 14.516 37.7951 10.1003 37.7834 5.68175C37.7776 3.8464 36.6725 2.36717 34.9102 2.22199C32.9355 2.06037 30.9376 2.18364 28.9659 2.18364C28.3087 5.45164 26.9971 6.47615 23.5422 6.47615C20.7795 6.47615 18.0167 6.47615 15.2569 6.47615C11.7758 6.47615 10.4526 5.4489 9.80988 2.13159C8.22203 2.13159 6.70106 2.12885 5.1801 2.13159C2.30393 2.13707 0.951639 3.39715 0.951639 6.07621C0.94873 18.0251 0.94873 29.974 0.94873 41.9202C0.94873 44.5938 2.32429 45.9004 5.15392 45.9032C10.8975 45.9059 16.6382 45.9004 22.3818 45.9004C23.2805 45.9004 24.182 45.9004 25.2086 45.9004C24.8945 44.9115 24.4786 44.0541 24.3739 43.1611C24.2547 42.1448 23.7516 42.0106 22.8093 42.0188Z"
                fill="var(--iconWebFcColor)"
            ></path>
            <path
                d="M17.0886 17.8077C19.1214 17.794 21.1513 17.8022 23.1841 17.8022C25.2169 17.8022 27.2468 17.7885 29.2796 17.8077C30.0968 17.8159 30.5999 17.6159 30.5883 16.7202C30.5738 15.8737 30.0765 15.6984 29.3203 15.7011C25.2577 15.7094 21.195 15.7121 17.1323 15.6984C16.318 15.6957 15.8149 15.8901 15.8294 16.7859C15.8381 17.6406 16.3325 17.8131 17.0886 17.8077Z"
                fill="var(--iconWebFcColor)"
            ></path>
            <path
                d="M29.3268 24.1042C30.1004 24.1097 30.5715 23.8932 30.5832 23.066C30.5948 22.2524 30.176 21.9922 29.3763 21.9949C25.2787 22.0059 21.1782 22.0059 17.0806 21.9949C16.3187 21.9922 15.8301 22.1702 15.8243 23.0167C15.8185 23.9097 16.3274 24.1097 17.1388 24.1014C19.1337 24.0823 21.1287 24.096 23.1237 24.096V24.0987C25.1914 24.0987 27.2591 24.0877 29.3268 24.1042Z"
                fill="var(--iconWebFcColor)"
            ></path>
            <path
                d="M29.3268 30.8516C30.1004 30.8571 30.5715 30.6407 30.5832 29.8134C30.5948 28.9998 30.176 28.7396 29.3763 28.7423C25.2787 28.7533 21.1782 28.7533 17.0806 28.7423C16.3187 28.7396 15.8301 28.9177 15.8243 29.7641C15.8185 30.6571 16.3274 30.8571 17.1388 30.8489C19.1337 30.8297 21.1287 30.8434 23.1237 30.8434V30.8461C25.1914 30.8461 27.2591 30.8352 29.3268 30.8516Z"
                fill="var(--iconWebFcColor)"
            ></path>
            <path
                d="M9.07953 17.5336C9.37907 17.8157 9.86473 17.8157 10.1614 17.5336L10.583 17.1309C11.3624 16.3858 12.1709 15.6626 12.9241 14.8956C13.0812 14.7367 13.148 14.3943 13.0812 14.1861C13.0317 14.03 12.7031 13.8738 12.4908 13.8656C12.3134 13.8574 12.0982 14.0355 11.947 14.1779C11.1821 14.8929 10.4318 15.6243 9.57392 16.4433C9.23075 16.0735 8.94575 15.7311 8.62004 15.427C8.34377 15.1695 8.00642 15.1695 7.73014 15.4353C7.46841 15.6873 7.48586 15.9913 7.73596 16.2406C8.16637 16.6652 8.6055 17.0843 9.07953 17.5336Z"
                fill="var(--iconWebFcColor)"
            ></path>
            <path
                d="M7.73631 22.5319C8.1958 22.9866 8.66692 23.4331 9.17876 23.918C9.42304 24.1508 9.82437 24.1508 10.0657 23.918L10.5834 23.4222C11.3628 22.6771 12.1713 21.9539 12.9245 21.1869C13.0815 21.028 13.1484 20.6856 13.0815 20.4774C13.0321 20.3213 12.7034 20.1651 12.4911 20.1569C12.3138 20.1487 12.0985 20.3267 11.9473 20.4692C11.1825 21.1841 10.4322 21.9155 9.57427 22.7346C9.2311 22.3648 8.94611 22.0224 8.62039 21.7183C8.34412 21.4608 8.00677 21.4608 7.7305 21.7265C7.47167 21.9785 7.48621 22.2826 7.73631 22.5319Z"
                fill="var(--iconWebFcColor)"
            ></path>
            <path
                d="M7.73631 29.2793C8.1958 29.734 8.66692 30.1806 9.17876 30.6654C9.42304 30.8983 9.82437 30.8983 10.0657 30.6654L10.5834 30.1696C11.3628 29.4245 12.1713 28.7013 12.9245 27.9343C13.0815 27.7754 13.1484 27.433 13.0815 27.2248C13.0321 27.0687 12.7034 26.9125 12.4911 26.9043C12.3138 26.8961 12.0985 27.0742 11.9473 27.2166C11.1825 27.9316 10.4322 28.663 9.57427 29.482C9.2311 29.1122 8.94611 28.7698 8.62039 28.4657C8.34412 28.2082 8.00677 28.2082 7.7305 28.474C7.47167 28.726 7.48621 29.03 7.73631 29.2793Z"
                fill="var(--iconWebFcColor)"
            ></path>
            <path
                d="M35.3758 31.802C30.7395 31.7913 26.94 35.3274 26.9487 39.6454C26.9575 43.9662 30.7249 47.4593 35.3962 47.4754C40.0909 47.4915 43.9516 43.9474 43.9487 39.6266C43.9458 35.3113 40.1113 31.8128 35.3758 31.802ZM40.6391 37.5872C39.1316 39.0865 37.522 40.4945 35.9649 41.9509L34.9297 42.9209C34.4457 43.375 33.6467 43.375 33.1597 42.9209C32.1391 41.9724 31.2002 41.1018 30.2817 40.2124C29.7801 39.726 29.751 39.1322 30.2729 38.6405C30.824 38.1192 31.4976 38.1219 32.0487 38.6217C32.699 39.2128 33.2676 39.8819 33.9558 40.6047C35.6645 39.0006 37.1604 37.5764 38.6884 36.1792C38.9887 35.9024 39.4203 35.5558 39.776 35.5719C40.1988 35.5907 40.852 35.8917 40.954 36.198C41.0882 36.6037 40.9511 37.2755 40.6391 37.5872Z"
                fill="var(--iconWebFcColor)"
            ></path>
            <path
                d="M13.3203 5.22697H25.2147C26.1976 5.22697 26.9974 4.4764 26.9974 3.54777V2.13428C26.9974 1.20839 26.2005 0.455078 25.2147 0.455078H13.3203C12.3373 0.455078 11.5376 1.20565 11.5376 2.13428V3.55051C11.5376 4.4764 12.3373 5.22697 13.3203 5.22697Z"
                fill="var(--iconWebFcColor)"
            ></path>
        </svg>