<?xml version="1.0" encoding="iso-8859-1"?><!-- Generator: Adobe Illustrator 22.1.0, SVG Export Plug-In . SVG Version: 6.00 Build 0)  --><svg xmlns="http://www.w3.org/2000/svg" xmlns:xlink="http://www.w3.org/1999/xlink" viewBox="0 0 30 30" width="30px" height="30px"><g id="Filled"><path d="M15.828,20.916C15.554,20.954,15.283,21,15,21c-3.313,0-6-2.687-6-6L5.406,7.813C3.902,9.818,3,12.3,3,15c0,6.229,4.747,11.347,10.82,11.94L15.828,20.916z"/><path d="M15,3c-3.926,0-7.402,1.894-9.59,4.81l4.342,4.342C10.768,10.283,12.724,9,15,9c1.342,0,2.568,0.456,3.568,1.2H25.8l-5.43,2.172C20.761,13.169,21,14.053,21,15c0,1.972-0.965,3.707-2.432,4.8H18.6l-4.76,7.141C14.221,26.978,14.608,27,15,27c6.628,0,12-5.372,12-12S21.628,3,15,3z"/><circle cx="15" cy="15" r="4"/></g></svg>