<svg xmlns="http://www.w3.org/2000/svg" width="218.444" height="104.771" viewBox="0 0 218.444 104.771"><g transform="translate(-573.621 -1822.109)"><g transform="translate(205.783 -1380.38)"><g transform="translate(547.295 3203.489)"><g transform="translate(0 0)"><path d="M110,0c10.934.021,18.993,9.269,18.993,19.718V44.094c0,9.772-5.674,14.843-12.087,14.843a12.1,12.1,0,0,1-12.087-12.086,16.038,16.038,0,0,0-6.292-12.72A18.994,18.994,0,0,1,110,0Z" transform="translate(-91.005 0)" fill="none" stroke="#009256" stroke-width="2"/></g></g><path d="M11972.147,9638.427s-8.78,2.536-7.262,10.3,11.819,2.367,12.665,9.628-7.094,7.935-7.094,7.935" transform="translate(-11401.867 -6421.156)" fill="none" stroke="#009256" stroke-linecap="round" stroke-width="2"/></g><g transform="translate(574.621 1832.063)"><rect width="95.179" height="62.196" transform="translate(27.329 15.81)" fill="#fff"/><path d="M9.177,0H111.024A9.177,9.177,0,0,1,120.2,9.177V82.293a9.177,9.177,0,0,1-9.177,9.177H9.177A9.177,9.177,0,0,1,0,82.293V9.177A9.177,9.177,0,0,1,9.177,0Z" transform="translate(11.5 0)" fill="#f0f0f0" stroke="#4c4c4c" stroke-miterlimit="10" stroke-width="2"/><g transform="translate(19.683 7.017)" fill="#fff" stroke="#4c4c4c" stroke-width="2"><rect width="102.765" height="75.053" rx="6" stroke="none"/><rect x="1" y="1" width="100.765" height="73.053" rx="5" fill="none"/></g><g transform="translate(0 86.005)"><g transform="translate(0 0)"><path d="M2069.387,596.246a3.577,3.577,0,0,0,3.565,3.566h136.581a3.576,3.576,0,0,0,3.566-3.566V592H2069.387Z" transform="translate(-2069.387 -592)" fill="#f0f0f0" stroke="#4c4c4c" stroke-width="2"/></g></g></g><path d="M0,0S24.377,4.49,23.418,33.68" transform="matrix(0.921, 0.391, -0.391, 0.921, 731.496, 1849.015)" fill="none" stroke="#009256" stroke-linecap="round" stroke-width="2"/><path d="M0,0S14.223,2.62,13.664,19.651" transform="matrix(0.921, 0.391, -0.391, 0.921, 726.492, 1860.803)" fill="none" stroke="#009256" stroke-linecap="round" stroke-width="2"/><path d="M0,0S7.143,1.315,6.859,9.865" transform="matrix(0.921, 0.391, -0.391, 0.921, 719.633, 1868.522)" fill="none" stroke="#009256" stroke-linecap="round" stroke-width="2"/></g></svg>