<svg xmlns="http://www.w3.org/2000/svg" width="123.131" height="91.774" viewBox="0 0 123.131 91.774"><g transform="translate(-1252.419 -886.198)"><g transform="translate(1282.788 889.23)"><g transform="translate(0 0)"><circle cx="31.196" cy="31.196" r="31.196" transform="translate(0 0)" fill="none" stroke="#000" stroke-miterlimit="10" stroke-width="2"/><path d="M1159.238,13.323a31.045,31.045,0,0,1-2.724,12.76l-6.042-12.478a.922.922,0,0,0-.418-.423l-8.115-4.057a.921.921,0,0,1-.51-.824V.349a.922.922,0,0,1,.27-.652l3.913-3.913a.921.921,0,0,0,.27-.652v-7.386a31.125,31.125,0,0,1,13.356,25.577Z" transform="translate(-1096.877 17.842)" fill="#f0f0f0" stroke="#000" stroke-miterlimit="10" stroke-width="2"/><path d="M820.239-13.29v3.408a1.135,1.135,0,0,1-.627,1.015l-8.036,4.018a1.135,1.135,0,0,1-.508.12h-2.449A1.135,1.135,0,0,0,807.6-4.1l-.721,1.442L803.554,4a30.93,30.93,0,0,1-8.8-2.273L797.614-4a1.135,1.135,0,0,0-.213-1.31L793.86-8.846a1.135,1.135,0,0,1-.332-.8v-7.508a1.135,1.135,0,0,0-.312-.781l-8.258-8.7a1.134,1.134,0,0,0-.823-.354h-8.416a31.165,31.165,0,0,1,31.164-31.164,31.187,31.187,0,0,1,9.229,1.389h0l-.436,6.574a1.135,1.135,0,0,1-.847,1.023l-7.945,2.06-8.054,2.088a1.135,1.135,0,0,0-.85,1.1v3.105a1.135,1.135,0,0,1-.332.8l-3.787,3.787a1.134,1.134,0,0,0-.332.8v3.281a1.134,1.134,0,0,0,.627,1.015l8.037,4.018a1.133,1.133,0,0,0,.508.12h8.029a1.135,1.135,0,0,1,.944.505l8.376,12.564A1.135,1.135,0,0,1,820.239-13.29Z" transform="translate(-775.688 58.154)" fill="#f0f0f0" stroke="#000" stroke-miterlimit="10" stroke-width="2"/></g></g><g transform="translate(1251 885.274)"><g transform="translate(0 0)"><g transform="matrix(0.996, -0.087, 0.087, 0.996, 0, 4.399)"><g transform="translate(0 0)"><path d="M14.576,18.776a23.151,23.151,0,0,0,4.655-.45,1.606,1.606,0,0,0,1.248-1.461,23.734,23.734,0,0,0-.355-5.109c-.674-3.8-2.211-6.812-4.445-8.721S10.225.077,6.37,0c-.15,0-.3,0-.445,0A23.152,23.152,0,0,0,1.268.45,1.606,1.606,0,0,0,.02,1.911,23.74,23.74,0,0,0,.375,7.02c.674,3.8,2.211,6.812,4.446,8.722s5.453,2.957,9.308,3.03Q14.356,18.776,14.576,18.776Z" transform="translate(0 28.835)" fill="none" stroke="#009256" stroke-width="2"/><path d="M8.049,17.966a13.58,13.58,0,0,0,7.639-2.061c2.434-1.647,4.3-4.471,5.4-8.168A23.382,23.382,0,0,0,22.009,2.7a1.606,1.606,0,0,0-1.077-1.591A23.35,23.35,0,0,0,15.914.094C15.251.032,14.594,0,13.961,0A13.578,13.578,0,0,0,6.324,2.061c-2.435,1.647-4.3,4.471-5.4,8.168A23.4,23.4,0,0,0,0,15.267a1.606,1.606,0,0,0,1.077,1.591A23.377,23.377,0,0,0,6.1,17.873C6.76,17.935,7.417,17.966,8.049,17.966Z" transform="translate(28.463 72.072)" fill="none" stroke="#009256" stroke-width="2"/><path d="M13.213,16.812a16.186,16.186,0,0,0,7.336-1.972,23.379,23.379,0,0,0,4.285-2.806,1.605,1.605,0,0,0,.409-1.877,23.7,23.7,0,0,0-2.729-4.333C20.125,2.8,17.345.866,14.473.241A10.8,10.8,0,0,0,12.173,0,16.185,16.185,0,0,0,4.838,1.972,23.36,23.36,0,0,0,.553,4.778,1.605,1.605,0,0,0,.145,6.655a23.717,23.717,0,0,0,2.729,4.333c2.389,3.026,5.169,4.957,8.041,5.583.112.025.224.047.338.068h0A11.008,11.008,0,0,0,13.213,16.812Z" transform="translate(4.837 54.822)" fill="none" stroke="#009256" stroke-width="2"/><path d="M13.12,24.026a1.6,1.6,0,0,0,1.39-.81,23.752,23.752,0,0,0,1.919-4.748c1.058-3.708,1-7.092-.175-9.788s-3.607-5.047-7.04-6.8A23.706,23.706,0,0,0,4.433.044,1.6,1.6,0,0,0,2.67.811,23.734,23.734,0,0,0,.751,5.559c-1.058,3.708-1,7.092.175,9.788s3.607,5.047,7.04,6.8a23.7,23.7,0,0,0,4.781,1.834A1.608,1.608,0,0,0,13.12,24.026Z" transform="translate(10.25 0)" fill="none" stroke="#009256" stroke-width="2"/></g></g><g transform="matrix(-0.996, -0.087, 0.087, -0.996, 118.122, 94.094)"><g transform="translate(0 0)"><path d="M14.576,0a23.152,23.152,0,0,1,4.655.45,1.606,1.606,0,0,1,1.248,1.461,23.734,23.734,0,0,1-.355,5.109c-.674,3.8-2.211,6.812-4.445,8.721S10.225,18.7,6.37,18.771c-.15,0-.3,0-.445,0a23.151,23.151,0,0,1-4.657-.45A1.606,1.606,0,0,1,.02,16.864a23.74,23.74,0,0,1,.355-5.108c.674-3.8,2.211-6.812,4.446-8.722S10.274.077,14.129,0Q14.356,0,14.576,0Z" transform="translate(0 42.427)" fill="none" stroke="#009256" stroke-width="2"/><path d="M8.049,0a13.58,13.58,0,0,1,7.639,2.061c2.434,1.647,4.3,4.471,5.4,8.168a23.382,23.382,0,0,1,.926,5.037,1.606,1.606,0,0,1-1.077,1.591,23.348,23.348,0,0,1-5.019,1.015c-.663.062-1.32.094-1.952.094a13.578,13.578,0,0,1-7.637-2.061c-2.435-1.647-4.3-4.471-5.4-8.168A23.4,23.4,0,0,1,0,2.7,1.606,1.606,0,0,1,1.079,1.108,23.375,23.375,0,0,1,6.1.093C6.76.031,7.417,0,8.049,0Z" transform="translate(28.462 0)" fill="none" stroke="#009256" stroke-width="2"/><path d="M13.213,0a16.185,16.185,0,0,1,7.335,1.972,23.377,23.377,0,0,1,4.285,2.806,1.605,1.605,0,0,1,.409,1.877,23.7,23.7,0,0,1-2.729,4.333c-2.389,3.026-5.169,4.957-8.041,5.583a10.8,10.8,0,0,1-2.3.241A16.185,16.185,0,0,1,4.838,14.84,23.36,23.36,0,0,1,.553,12.034a1.605,1.605,0,0,1-.408-1.878A23.715,23.715,0,0,1,2.873,5.823C5.262,2.8,8.042.866,10.914.24c.112-.025.224-.047.338-.068h0A11.008,11.008,0,0,1,13.213,0Z" transform="translate(4.837 18.404)" fill="none" stroke="#009256" stroke-width="2"/><path d="M13.12,0a1.6,1.6,0,0,1,1.39.81,23.752,23.752,0,0,1,1.919,4.748c1.058,3.708,1,7.092-.175,9.788s-3.607,5.047-7.04,6.8a23.707,23.707,0,0,1-4.78,1.833,1.6,1.6,0,0,1-1.763-.766A23.734,23.734,0,0,1,.751,18.467c-1.058-3.708-1-7.092.175-9.788s3.607-5.047,7.04-6.8A23.7,23.7,0,0,1,12.747.044,1.609,1.609,0,0,1,13.12,0Z" transform="translate(10.25 66.011)" fill="none" stroke="#009256" stroke-width="2"/></g></g></g></g></g></svg>