<svg xmlns="http://www.w3.org/2000/svg" width="145.712" height="91.959" viewBox="0 0 145.712 91.959"><g transform="translate(-1161.143 -1831.063)"><g transform="translate(1162.145 1832.063)"><rect width="95.179" height="58.339" transform="translate(27.328 15.81)" fill="#fff"/><path d="M9.177,0H111.024A9.177,9.177,0,0,1,120.2,9.177V78.436a9.177,9.177,0,0,1-9.177,9.177H9.177A9.177,9.177,0,0,1,0,78.436V9.177A9.177,9.177,0,0,1,9.177,0Z" transform="translate(11.499 0)" fill="#f0f0f0" stroke="#4c4c4c" stroke-miterlimit="10" stroke-width="2"/><g transform="translate(19.682 7.017)" fill="#fff" stroke="#4c4c4c" stroke-width="2"><rect width="102.765" height="71.196" rx="6" stroke="none"/><rect x="1" y="1" width="100.765" height="69.196" rx="5" fill="none"/></g><g transform="translate(-0.001 82.147)"><g transform="translate(0 0)"><path d="M2069.387,596.246a3.577,3.577,0,0,0,3.565,3.566h136.581a3.576,3.576,0,0,0,3.566-3.566V592H2069.387Z" transform="translate(-2069.387 -592)" fill="#f0f0f0" stroke="#4c4c4c" stroke-width="2"/></g></g></g><g transform="translate(1205.922 1855.667)"><g transform="translate(0)"><path d="M834.554,138.5h18.018a1.766,1.766,0,0,1,1.1.367l6.307,5.087a1.829,1.829,0,0,0,2.2,0l6.307-5.087a1.765,1.765,0,0,1,1.1-.367H887.6a1.429,1.429,0,0,1,1.554,1.254v31.006a1.429,1.429,0,0,1-1.554,1.254H868.461a1.766,1.766,0,0,0-1.1.367l-5.184,4.181a1.829,1.829,0,0,1-2.2,0L854.8,172.38a1.766,1.766,0,0,0-1.1-.367H834.554A1.428,1.428,0,0,1,833,170.759V139.754A1.428,1.428,0,0,1,834.554,138.5Z" transform="translate(-833 -132.613)" fill="none" stroke="#009256" stroke-miterlimit="10" stroke-width="2"/><path d="M840.254,132h14.531a1.254,1.254,0,0,1,.886.367l5.087,5.087a1.253,1.253,0,0,0,1.773,0l5.087-5.087A1.253,1.253,0,0,1,868.5,132h14.531a1.254,1.254,0,0,1,1.254,1.254v31.006a1.254,1.254,0,0,1-1.254,1.254H867.6a1.253,1.253,0,0,0-.886.367l-4.181,4.181a1.253,1.253,0,0,1-1.773,0l-4.181-4.181a1.253,1.253,0,0,0-.886-.367H840.254A1.254,1.254,0,0,1,839,164.259V133.254A1.254,1.254,0,0,1,840.254,132Z" transform="translate(-833.566 -132)" fill="#fff" stroke="#009256" stroke-miterlimit="10" stroke-width="2"/></g><path d="M11901.75,10244.5v32.2" transform="translate(-11873.672 -10238.513)" fill="none" stroke="#009256" stroke-linecap="round" stroke-width="2"/></g></g></svg>