<svg width="398" height="341" viewBox="0 0 398 341" fill="none" xmlns="http://www.w3.org/2000/svg">
<g clip-path="url(#clip0_6259_354)">
<g opacity="0.12">
<path d="M214.268 2.83496C228.868 2.86296 239.633 15.214 239.633 29.169V61.722C239.633 74.772 232.056 81.545 223.491 81.545C219.211 81.5402 215.108 79.838 212.082 76.8118C209.056 73.7856 207.354 69.6826 207.349 65.403C207.346 62.1169 206.587 58.8755 205.13 55.9299C203.673 52.9843 201.558 50.4133 198.949 48.416C194.715 45.2068 191.596 40.7494 190.031 35.6726C188.466 30.5958 188.535 25.1558 190.227 20.12C191.92 15.0843 195.151 10.7071 199.464 7.60577C203.777 4.5045 208.955 2.83575 214.268 2.83496Z" stroke="#009256" stroke-width="3"/>
<path d="M219.597 21.2402C219.597 21.2402 207.873 24.624 209.898 34.999C211.923 45.374 225.684 38.1595 226.813 47.8545C227.942 57.5495 217.34 58.4541 217.34 58.4541" stroke="#009256" stroke-width="3" stroke-linecap="round"/>
<path d="M167.275 12.1016L182.829 17.0137" stroke="#009256" stroke-width="3" stroke-linecap="round"/>
<path d="M180.04 2.12207L185.902 8.3623" stroke="#009256" stroke-width="3" stroke-linecap="round"/>
<path d="M173.042 30.5088L180.985 27.6523" stroke="#009256" stroke-width="3" stroke-linecap="round"/>
</g>
<path opacity="0.26" d="M222.313 101.146V158.878" stroke="#009256" stroke-width="3" stroke-linecap="round"/>
<path opacity="0.26" d="M136.367 153.491L163.868 180.992" stroke="#009256" stroke-width="3" stroke-linecap="round"/>
<path opacity="0.26" d="M134.061 160.677L121.018 187.448" stroke="#009256" stroke-width="3" stroke-linecap="round"/>
<path opacity="0.26" d="M118.238 193.101L106.048 218.121" stroke="#009256" stroke-width="3" stroke-linecap="round"/>
<path opacity="0.26" d="M101.664 221.68V300.703" stroke="#009256" stroke-width="3" stroke-linecap="round"/>
<path opacity="0.26" d="M160.599 138.06L222.26 102.459" stroke="#009256" stroke-width="3" stroke-linecap="round"/>
<path opacity="0.26" d="M133.481 153.49L156.267 140.335" stroke="#009256" stroke-width="3" stroke-linecap="round"/>
<path opacity="0.26" d="M277.485 134.941L222.262 103.058" stroke="#009256" stroke-width="3" stroke-linecap="round"/>
<path opacity="0.26" d="M101.664 219.54H154.064" stroke="#009256" stroke-width="3" stroke-linecap="round"/>
<path opacity="0.26" d="M101.721 307.713L137.735 271.698" stroke="#009256" stroke-width="3" stroke-linecap="round"/>
<path opacity="0.26" d="M141.848 267.33L156.306 252.872" stroke="#009256" stroke-width="3" stroke-linecap="round"/>
<path opacity="0.26" d="M222.313 166.295V182.995" stroke="#009256" stroke-width="3" stroke-linecap="round"/>
<path d="M339.913 213.759H187.656V313.254H339.913V213.759Z" fill="#E5E5E5"/>
<path d="M171.513 188.468H345.444C347.878 188.468 350.212 189.435 351.933 191.156C353.654 192.877 354.621 195.211 354.621 197.645V325.615C354.621 328.049 353.654 330.383 351.933 332.104C350.212 333.825 347.878 334.792 345.444 334.792H171.513C169.079 334.792 166.745 333.825 165.024 332.104C163.303 330.383 162.336 328.049 162.336 325.615V197.645C162.336 195.211 163.303 192.877 165.024 191.156C166.745 189.435 169.079 188.468 171.513 188.468Z" fill="#F0F0F0" stroke="#4C4C4C" stroke-width="3" stroke-miterlimit="10"/>
<path d="M333.818 199.692H181.425C178.111 199.692 175.425 202.379 175.425 205.692V313.754C175.425 317.068 178.111 319.754 181.425 319.754H333.818C337.132 319.754 339.818 317.068 339.818 313.754V205.692C339.818 202.379 337.132 199.692 333.818 199.692Z" fill="#CACACA"/>
<path d="M333.818 201.192H181.425C178.94 201.192 176.925 203.207 176.925 205.692V313.754C176.925 316.24 178.94 318.254 181.425 318.254H333.818C336.303 318.254 338.318 316.24 338.318 313.754V205.692C338.318 203.207 336.303 201.192 333.818 201.192Z" stroke="#4C4C4C" stroke-width="3"/>
<path d="M143.938 332.841C143.943 334.351 144.546 335.797 145.613 336.865C146.681 337.933 148.128 338.535 149.638 338.541H368.126C369.636 338.535 371.083 337.933 372.15 336.865C373.218 335.797 373.82 334.351 373.826 332.841V326.048H143.926L143.938 332.841Z" fill="#F0F0F0" stroke="#4C4C4C" stroke-width="3"/>
<path d="M258.262 284.968H227.021L247.761 264.228V102.468C247.761 99.683 248.867 97.0121 250.836 95.043C252.806 93.0738 255.476 91.9678 258.261 91.9678H385.261C388.046 91.9678 390.716 93.0738 392.686 95.043C394.655 97.0121 395.761 99.683 395.761 102.468V274.468C395.761 277.253 394.655 279.923 392.686 281.893C390.716 283.862 388.046 284.968 385.261 284.968H258.262Z" fill="white" stroke="#4C4C4C" stroke-width="3"/>
<path d="M265.393 219.808H376.707" stroke="#4C4C4C" stroke-width="3" stroke-linecap="round"/>
<path d="M265.393 233.452H376.707" stroke="#4C4C4C" stroke-width="3" stroke-linecap="round"/>
<path d="M265.394 247.099H341.053" stroke="#4C4C4C" stroke-width="3" stroke-linecap="round"/>
<path d="M303.321 170.976V202.16L316.421 194.811V175.311L303.321 170.976Z" fill="#009256"/>
<path d="M341.95 170.976V202.16L328.85 194.811V175.311L341.95 170.976Z" fill="#009256"/>
<path d="M322.635 177.749C338.452 177.749 351.275 164.926 351.275 149.109C351.275 133.291 338.452 120.469 322.635 120.469C306.818 120.469 293.995 133.291 293.995 149.109C293.995 164.926 306.818 177.749 322.635 177.749Z" fill="#009256"/>
<path d="M322.635 179.249C339.281 179.249 352.775 165.755 352.775 149.109C352.775 132.463 339.281 118.969 322.635 118.969C305.989 118.969 292.495 132.463 292.495 149.109C292.495 165.755 305.989 179.249 322.635 179.249Z" stroke="white" stroke-width="3"/>
<path d="M322.635 168.705C333.458 168.705 342.231 159.931 342.231 149.109C342.231 138.286 333.458 129.513 322.635 129.513C311.812 129.513 303.039 138.286 303.039 149.109C303.039 159.931 311.812 168.705 322.635 168.705Z" fill="white"/>
<path d="M334.331 145.987C334.448 145.87 334.53 145.722 334.568 145.562C334.607 145.401 334.6 145.233 334.55 145.075C334.499 144.918 334.405 144.778 334.28 144.67C334.155 144.562 334.002 144.491 333.839 144.464L327.079 143.482C326.935 143.461 326.798 143.404 326.682 143.316C326.565 143.229 326.472 143.115 326.411 142.982L323.388 136.854C323.313 136.706 323.198 136.581 323.056 136.494C322.915 136.407 322.752 136.361 322.585 136.361C322.419 136.361 322.256 136.407 322.115 136.494C321.973 136.581 321.858 136.706 321.783 136.854L318.772 142.982C318.708 143.112 318.614 143.225 318.498 143.312C318.382 143.398 318.247 143.457 318.104 143.482L311.344 144.464C311.181 144.491 311.028 144.562 310.903 144.67C310.778 144.778 310.684 144.918 310.633 145.075C310.583 145.233 310.576 145.401 310.615 145.562C310.653 145.722 310.735 145.87 310.852 145.987L315.738 150.757C315.84 150.857 315.917 150.981 315.962 151.117C316.007 151.253 316.018 151.398 315.996 151.539L314.848 158.265C314.822 158.429 314.843 158.597 314.907 158.75C314.971 158.903 315.076 159.036 315.21 159.133C315.345 159.23 315.504 159.288 315.669 159.301C315.835 159.313 316 159.28 316.148 159.204L322.194 156.029C322.322 155.96 322.465 155.924 322.61 155.924C322.755 155.924 322.898 155.96 323.026 156.029L329.072 159.204C329.22 159.28 329.385 159.313 329.551 159.301C329.716 159.288 329.875 159.23 330.01 159.133C330.144 159.036 330.249 158.903 330.313 158.75C330.377 158.597 330.397 158.429 330.372 158.265L329.212 151.539C329.188 151.398 329.199 151.252 329.244 151.116C329.289 150.98 329.367 150.856 329.47 150.757L334.331 145.987Z" fill="#009256"/>
<path d="M283.033 138.49C284.116 139.123 285.261 139.644 286.449 140.046C286.714 140.128 286.999 140.122 287.261 140.029C287.523 139.936 287.747 139.761 287.901 139.53C288.634 138.367 289.238 137.129 289.705 135.836C290.743 133.347 290.888 130.575 290.115 127.99C289.091 125.494 287.236 123.429 284.863 122.146C284.759 122.085 284.656 122.026 284.554 121.967C283.471 121.334 282.325 120.813 281.137 120.411C280.871 120.329 280.586 120.335 280.325 120.428C280.063 120.521 279.838 120.696 279.684 120.927C278.951 122.089 278.345 123.326 277.878 124.618C276.84 127.108 276.695 129.88 277.468 132.465C278.493 134.96 280.349 137.024 282.722 138.306C282.827 138.37 282.93 138.432 283.033 138.49Z" stroke="#009256" stroke-width="3"/>
<path d="M281.254 176.786C283.092 177.928 285.228 178.496 287.39 178.42C290.068 178.095 292.552 176.854 294.419 174.907C295.419 173.965 296.313 172.915 297.084 171.778C297.234 171.543 297.304 171.267 297.284 170.989C297.264 170.712 297.155 170.448 296.973 170.238C296.049 169.221 295.016 168.309 293.893 167.518C293.457 167.209 293.013 166.924 292.573 166.67C290.735 165.529 288.6 164.961 286.438 165.037C283.759 165.362 281.276 166.603 279.408 168.55C278.408 169.493 277.513 170.542 276.742 171.679C276.592 171.913 276.521 172.189 276.541 172.466C276.561 172.744 276.67 173.007 276.851 173.217C277.776 174.234 278.809 175.146 279.933 175.938C280.368 176.251 280.814 176.532 281.254 176.786Z" stroke="#009256" stroke-width="3"/>
<path d="M275.806 156.583C277.617 157.567 279.637 158.106 281.697 158.156C283.069 158.229 284.446 158.152 285.801 157.925C286.074 157.872 286.323 157.732 286.51 157.527C286.697 157.321 286.812 157.061 286.839 156.784C286.935 155.413 286.882 154.036 286.681 152.677C286.419 149.992 285.236 147.481 283.332 145.569C282.872 145.153 282.369 144.788 281.83 144.479C280.019 143.495 278 142.956 275.94 142.906C274.567 142.832 273.191 142.91 271.835 143.137C271.563 143.19 271.314 143.329 271.127 143.535C270.94 143.741 270.825 144.001 270.798 144.278C270.702 145.649 270.755 147.026 270.955 148.385C271.218 151.069 272.402 153.58 274.305 155.492C274.373 155.554 274.442 155.615 274.512 155.675C274.915 156.016 275.349 156.319 275.806 156.583Z" stroke="#009256" stroke-width="3"/>
<path d="M298.61 125.626C298.807 125.739 299.03 125.798 299.257 125.797C299.484 125.796 299.707 125.735 299.902 125.62C301.07 124.896 302.156 124.047 303.142 123.089C305.166 121.306 306.511 118.878 306.948 116.216C307.121 113.525 306.358 110.857 304.788 108.664C304.042 107.508 303.173 106.437 302.196 105.469C301.994 105.277 301.735 105.156 301.459 105.125C301.182 105.093 300.903 105.153 300.663 105.294C299.494 106.018 298.408 106.866 297.421 107.823C295.397 109.606 294.052 112.035 293.615 114.697C293.443 117.389 294.207 120.058 295.778 122.251C296.523 123.405 297.39 124.476 298.365 125.444C298.44 125.514 298.522 125.575 298.61 125.626Z" stroke="#009256" stroke-width="3"/>
<path d="M362.386 138.49C361.303 139.123 360.159 139.644 358.971 140.046C358.705 140.128 358.42 140.122 358.159 140.029C357.897 139.936 357.672 139.761 357.518 139.53C356.786 138.367 356.181 137.129 355.715 135.837C354.677 133.347 354.532 130.575 355.305 127.99C356.329 125.495 358.186 123.431 360.559 122.149C360.664 122.088 360.767 122.029 360.868 121.97C361.952 121.337 363.097 120.816 364.286 120.414C364.551 120.332 364.836 120.338 365.098 120.431C365.359 120.524 365.584 120.699 365.738 120.93C366.47 122.091 367.075 123.328 367.541 124.618C368.579 127.108 368.724 129.88 367.951 132.465C366.928 134.962 365.071 137.027 362.697 138.311C362.592 138.371 362.489 138.431 362.386 138.49Z" stroke="#009256" stroke-width="3"/>
<path d="M364.165 176.785C362.327 177.926 360.191 178.495 358.029 178.418C355.351 178.094 352.867 176.853 351 174.906C350 173.963 349.106 172.914 348.335 171.776C348.185 171.542 348.115 171.265 348.135 170.988C348.155 170.711 348.264 170.447 348.447 170.237C349.371 169.22 350.404 168.308 351.528 167.517C351.964 167.207 352.408 166.922 352.848 166.668C354.686 165.527 356.822 164.959 358.984 165.036C361.661 165.361 364.144 166.602 366.011 168.549C367.011 169.491 367.906 170.54 368.677 171.678C368.827 171.912 368.897 172.188 368.877 172.466C368.857 172.743 368.748 173.006 368.566 173.217C367.642 174.233 366.608 175.145 365.485 175.936C365.049 176.246 364.605 176.531 364.165 176.785Z" stroke="#009256" stroke-width="3"/>
<path d="M369.613 156.583C367.802 157.567 365.783 158.107 363.722 158.156C362.35 158.23 360.974 158.152 359.618 157.925C359.345 157.872 359.097 157.733 358.91 157.527C358.723 157.322 358.607 157.061 358.581 156.784C358.485 155.414 358.537 154.037 358.738 152.677C359.001 149.993 360.184 147.482 362.087 145.57C362.548 145.155 363.051 144.789 363.589 144.481C365.4 143.497 367.419 142.957 369.479 142.908C370.852 142.834 372.228 142.91 373.584 143.137C373.857 143.19 374.105 143.33 374.292 143.535C374.479 143.741 374.595 144.002 374.622 144.278C374.717 145.649 374.665 147.026 374.464 148.385C374.202 151.07 373.018 153.581 371.115 155.493C371.047 155.555 370.978 155.616 370.908 155.676C370.504 156.017 370.071 156.32 369.613 156.583Z" stroke="#009256" stroke-width="3"/>
<path d="M346.809 125.624C346.612 125.737 346.389 125.796 346.162 125.795C345.935 125.794 345.712 125.733 345.517 125.618C344.349 124.894 343.263 124.045 342.277 123.088C340.253 121.305 338.908 118.876 338.471 116.214C338.298 113.523 339.062 110.856 340.632 108.663C341.376 107.508 342.243 106.438 343.219 105.47C343.42 105.278 343.679 105.157 343.956 105.126C344.232 105.094 344.512 105.154 344.751 105.295C345.922 106.017 347.01 106.865 347.998 107.821C350.022 109.605 351.367 112.033 351.804 114.695C351.976 117.387 351.212 120.056 349.64 122.249C348.895 123.404 348.027 124.475 347.051 125.444C346.977 125.513 346.896 125.574 346.809 125.624Z" stroke="#009256" stroke-width="3"/>
<path d="M222.314 110.545C227.285 110.545 231.314 106.515 231.314 101.545C231.314 96.5744 227.285 92.5449 222.314 92.5449C217.343 92.5449 213.314 96.5744 213.314 101.545C213.314 106.515 217.343 110.545 222.314 110.545Z" fill="#009256"/>
<path d="M139.697 156.82C142.04 154.477 142.04 150.678 139.697 148.335C137.354 145.991 133.555 145.991 131.212 148.335C128.868 150.678 128.868 154.477 131.212 156.82C133.555 159.163 137.354 159.163 139.697 156.82Z" fill="#009256"/>
<path d="M106.664 219.541C106.664 216.78 104.425 214.541 101.664 214.541C98.9026 214.541 96.664 216.78 96.664 219.541C96.664 222.302 98.9026 224.541 101.664 224.541C104.425 224.541 106.664 222.302 106.664 219.541Z" fill="#009256"/>
<path d="M105.2 303.166C103.247 301.213 100.081 301.213 98.1285 303.166C96.1758 305.118 96.1758 308.284 98.1285 310.237C100.081 312.19 103.247 312.19 105.2 310.237C107.152 308.284 107.152 305.118 105.2 303.166Z" fill="#009256"/>
<g opacity="0.12">
<path d="M3.74298 196.064H29.743C30.3161 196.057 30.8749 196.243 31.329 196.593L40.429 203.933C40.8864 204.277 41.4432 204.463 42.0155 204.463C42.5878 204.463 43.1446 204.277 43.602 203.933L52.702 196.593C53.1561 196.243 53.7149 196.057 54.288 196.064H80.288C80.824 196.013 81.3585 196.174 81.7775 196.512C82.1965 196.85 82.4666 197.338 82.53 197.873V242.611C82.4666 243.146 82.1965 243.634 81.7775 243.972C81.3585 244.31 80.824 244.471 80.288 244.42H52.666C52.0929 244.413 51.5341 244.599 51.08 244.949L43.601 250.982C43.1437 251.326 42.5869 251.512 42.0145 251.512C41.4422 251.512 40.8853 251.326 40.428 250.982L32.949 244.949C32.4949 244.599 31.9361 244.413 31.363 244.42H3.74298C3.20673 244.471 2.67173 244.311 2.2525 243.972C1.83327 243.634 1.56316 243.145 1.5 242.61V197.873C1.5634 197.338 1.83361 196.85 2.25281 196.511C2.67201 196.173 3.20688 196.013 3.74298 196.064Z" stroke="#009256" stroke-width="3" stroke-miterlimit="10"/>
<path d="M11.15 187.569H32.116C32.5953 187.569 33.0549 187.76 33.394 188.098L40.733 195.437C40.901 195.605 41.1005 195.739 41.32 195.83C41.5395 195.921 41.7749 195.968 42.0125 195.968C42.2502 195.968 42.4855 195.921 42.705 195.83C42.9246 195.739 43.124 195.605 43.292 195.437L50.631 188.098C50.97 187.76 51.4297 187.569 51.909 187.569H72.875C73.3548 187.569 73.8149 187.76 74.1542 188.099C74.4934 188.438 74.684 188.899 74.684 189.378V234.115C74.684 234.595 74.4934 235.055 74.1542 235.394C73.8149 235.734 73.3548 235.924 72.875 235.924H50.604C50.1247 235.924 49.665 236.115 49.326 236.453L43.293 242.486C43.125 242.654 42.9255 242.788 42.706 242.879C42.4865 242.97 42.2511 243.017 42.0135 243.017C41.7758 243.017 41.5405 242.97 41.321 242.879C41.1014 242.788 40.902 242.654 40.734 242.486L34.701 236.453C34.3619 236.115 33.9023 235.924 33.423 235.924H11.15C10.6702 235.924 10.2101 235.734 9.87085 235.394C9.5316 235.055 9.341 234.595 9.341 234.115V189.378C9.341 188.899 9.5316 188.438 9.87085 188.099C10.2101 187.76 10.6702 187.569 11.15 187.569Z" fill="white" stroke="#009256" stroke-width="3" stroke-miterlimit="10"/>
<path d="M42.014 196.213V242.667" stroke="#009256" stroke-width="3" stroke-linecap="round"/>
</g>
</g>
<defs>
<clipPath id="clip0_6259_354">
<rect width="397.262" height="340.045" fill="white"/>
</clipPath>
</defs>
</svg>
