<svg xmlns="http://www.w3.org/2000/svg" width="133.232" height="107.641" viewBox="0 0 133.232 107.641"><g transform="translate(-888.75 -840.763)"><g transform="translate(0 -43.097)"><path d="M8154,7698.5h23.75" transform="translate(-7252 -6767)" fill="none" stroke="#009256" stroke-linecap="round" stroke-width="2"/><path d="M8154,7698.5h30.25" transform="translate(-7264.25 -6754.833)" fill="none" stroke="#009256" stroke-linecap="round" stroke-width="2"/><path d="M8154,7698.5h25" transform="translate(-7252 -6742.667)" fill="none" stroke="#009256" stroke-linecap="round" stroke-width="2"/><g transform="translate(299.135 -227.659) rotate(16)"><g transform="translate(857.32 815.351)"><path d="M141.683,100.518l3.1,3.1,3.545-3.545a1.2,1.2,0,0,0,0-1.693l-8.9-8.9a1.2,1.2,0,0,0-1.693,0l-3.545,3.545,3.1,3.1-4.3,4.3a35.872,35.872,0,0,0-17.965-8.706v-7.7h5.25V76.8a1.318,1.318,0,0,0-1.318-1.318H98.987A1.318,1.318,0,0,0,97.669,76.8v7.224h5.25v7.7a36,36,0,1,0,34.323,13.239Z" fill="#f0f0f0" stroke="#4c4c4c" stroke-miterlimit="10" stroke-width="2"/><circle cx="28.142" cy="28.142" r="28.142" transform="translate(80.617 99.034)" fill="#fff" stroke="#4c4c4c" stroke-miterlimit="10" stroke-width="2"/></g><rect width="3" height="25" rx="1.5" transform="translate(965 919)" fill="#4c4c4c"/><rect width="23" height="9" transform="translate(955 891)" fill="#4c4c4c"/><rect width="15" height="6" transform="translate(995.429 904.308) rotate(45)" fill="#4c4c4c"/></g></g></g></svg>