<svg xmlns="http://www.w3.org/2000/svg" width="136.293" height="89.667" viewBox="0 0 136.293 89.667"><g transform="translate(-500.104 -846.736)"><g transform="translate(0 -43.097)"><rect width="88.941" height="58.12" transform="translate(526.642 905.606)" fill="#e5e5e5"/><path d="M9.177,0h93.968a9.177,9.177,0,0,1,9.177,9.177V76.3a9.177,9.177,0,0,1-9.177,9.177H9.177A9.177,9.177,0,0,1,0,76.3V9.177A9.177,9.177,0,0,1,9.177,0Z" transform="translate(511.851 890.833)" fill="#f0f0f0" stroke="#4c4c4c" stroke-miterlimit="10" stroke-width="2"/><g transform="translate(519.497 897.39)" fill="#fff" stroke="#4c4c4c" stroke-width="2"><rect width="96.029" height="70.134" rx="6" stroke="none"/><rect x="1" y="1" width="94.029" height="68.134" rx="5" fill="none"/></g><g transform="translate(501.104 971.2)"><g transform="translate(0 0)"><path d="M2069.387,595.968a3.342,3.342,0,0,0,3.332,3.332h127.629a3.342,3.342,0,0,0,3.332-3.332V592H2069.387Z" transform="translate(-2069.387 -592)" fill="#f0f0f0" stroke="#4c4c4c" stroke-width="2"/></g></g></g><path d="M22445.375,1474.063v20.688l8.688-4.875v-12.937Z" transform="translate(-21889.938 -576.805)" fill="none" stroke="#009256" stroke-width="2"/><path d="M22454.063,1474.063v20.688l-8.687-4.875v-12.937Z" transform="translate(-21873 -576.805)" fill="none" stroke="#009256" stroke-width="2"/><g transform="translate(549.25 863.195)" fill="#fff" stroke="#009256" stroke-width="2"><circle cx="19" cy="19" r="19" stroke="none"/><circle cx="19" cy="19" r="20" fill="none"/></g><g transform="translate(555.25 869.195)" fill="none" stroke="#009256" stroke-width="2"><circle cx="13" cy="13" r="13" stroke="none"/><circle cx="13" cy="13" r="14" fill="none"/></g><path d="M-603.446,8602.041a.594.594,0,0,0-.326-1.011l-4.485-.651a.583.583,0,0,1-.443-.328l-2.005-4.065a.594.594,0,0,0-1.065,0l-2,4.065a.61.61,0,0,1-.443.328l-4.485.651a.594.594,0,0,0-.326,1.011l3.241,3.164a.6.6,0,0,1,.171.52l-.762,4.462a.594.594,0,0,0,.863.623l4.011-2.106a.582.582,0,0,1,.552,0l4.011,2.106a.6.6,0,0,0,.863-.623l-.769-4.462a.585.585,0,0,1,.171-.52Z" transform="translate(1179.457 -7721.917)" fill="#009256"/></g></svg>